<?xml version="1.0" encoding="UTF-8"?>
<svg id="Capa_2" data-name="Capa 2" xmlns="http://www.w3.org/2000/svg" viewBox="0 0 600 186.08">
  <defs>
    <style>
      .cls-1 {
        fill: #293171;
      }
    </style>
  </defs>
  <path class="cls-1" d="M269.54,102.02c-.15-2.98-.21-5.55.04-8.3.85-9.48,4.23-18.56,11.11-25.19,4.04-3.89,9.54-5.88,14.92-5.45,3.15.25,6.3,1.02,8.48,3.23,3.2,3.25,3.93,8,2.72,12.36-3.36,12.15-14.87,21.39-24.57,28.77,2.29,3.85,6.79,5.6,11.31,4.79,10.38-1.84,14.74-11.33,19.11-11.6,2.94-.18,4.29,3.05,3.9,5.68-.28,1.9-1.6,3.23-2.89,4.64-6.62,7.23-15.81,11.1-25.75,10.51-7.12-.43-11.23-3.85-15.45-9.15-8.74,5.03-24.61,12.82-34.01,7.3-5.15-4.36-5.82-9.03-6.31-15.31l-11.46,7.5c-9.69,6.34-20.12,10.67-31.91,9.53-9.78-.95-15.73-7.26-18.04-16.89l-4.63,4.77-3.48,3.27-2.8,2.31c-5.98,4.93-12.63,8.51-19.45,12.24l-8.83,26.14c-1.92,5.7-4.69,10.9-8.47,15.34-4.73,5.56-11.1,7.97-18.29,7.28-3.73-.36-6.88-1.64-9.32-4.77-2.6-3.33-2.81-7.83-1.54-12,1.81-5.95,5.41-10.93,9.64-15.39s10.97-9.87,16.04-13.38l12.26-8.51c1.92-5.5,3.64-10.74,4.92-16.65l-9.78,9.42c-3.6,3.47-8.24,5.6-13.07,6.55-4.16.8-8.33.31-11.53-2.54-6-5.32-.08-17.77.53-24.68l-8.25,7.95c-6.08,5.85-12.93,10.53-20.55,14.21-9.34,4.51-19.25,6.26-29.49,5.25-8.26-.81-15.42-4.47-20.85-10.68-5.44-6.21-7.68-13.93-8.03-22.2-.58-13.8,1.51-26.52,7.36-39.11,4.66-10.03,10.71-18.89,18.96-26.3,11.2-10.06,26.75-15.06,41.69-13.54,9.55.97,18.16,5.47,23.37,13.6.16,1.73-1.23,3.95-2.76,4.59-1.85.78-3.56-.19-4.98-1.25-17.01-12.73-38.19-8.58-52.37,5.95-14.27,14.62-22.06,34.58-20.59,55,.36,5.06,1.21,9.81,3.74,14.17,4.4,7.57,12.57,11.65,21.4,11.28,26.06-1.08,49.06-23.76,61.1-45.39.78-1.4,2.11-3.44,3.61-3.91,2.52-.79,5.14.56,6.77,2.26l-6.4,19.5-6.54,19.91c-.59,1.8-.65,4.49.72,5.75,1.9,1.73,4.52,1.58,6.64.58,5.47-2.58,9.75-6.48,13.55-11.21,7.48-9.32,12.98-19.74,17.57-30.8.91-2.18,1.79-4.53,3.92-5.69,2.46-1.35,5.55-.3,7.37,2.09l-15.69,49.55c10.18-4.43,19.96-12.38,25.11-22.07,4.59-8.64,7.6-18.59,15.42-24.21,6.37-4.57,13.93-7,21.64-6.13,5.58.63,10.69,2.68,14.63,6.48,1.4,1.35,2.17,3.48,1.72,5.36-.35,1.47-1.79,2.51-2.9,2.91-1.5.54-3.27.1-4.55-.95-3.93-3.22-8.66-5.34-13.91-4.74-3.54.4-7.18,1.69-9.95,3.98-7.37,6.12-12.1,17.86-10.29,27.11.99,5.07,5.27,9.12,10.83,9.46,14.45.89,28.95-9.96,39.51-18.79,1.29-1.08,2.76-2.46,3.81-3.79l11.09-33.39,10.74-32.1c1.63-4.87,4.58-8.94,8.4-12.25,4.4-3.82,11.34-4.98,16.1-1.31,10.43,8.04,2.78,27.44-2.34,36.9-4.77,8.82-10.2,17-16.66,24.69l-10.51,12.5-4.55,5.01c-.93,1.03-2.11,2.27-2.9,3.41-2.51,3.59-2.36,8.13-2.44,12.35-.04,2.06.3,4.19,1.66,5.46,5.11,4.79,20.11-2.81,25.63-6.51.58-.39.13-2.06.09-2.79ZM277.53,22.61l-1.79-4.34c-1.89.21-3.53.51-5.49.97-2.16,4.3-4.3,8.18-5.77,12.82l-12.81,40.27c11.25-10.99,25.31-34.45,25.87-49.73ZM297.39,76.17c-.2-2.86-3.83-5-6.38-3.89-7.71,3.37-12.43,18.31-11.49,26.41,6.54-3.33,18.32-16.1,17.87-22.52ZM111.12,166.63c9.12-3.83,13.88-22.27,15.84-31.1-8.32,4.67-22.27,16.61-23.64,25.84.08,2.07.59,4.06,2.11,5.12s3.6.84,5.69.14Z"/>
  <path class="cls-1" d="M540.34,102.71c-2.65-14.71,6.42-40.95,25.79-39.6,4.12.29,8.16,1.61,10.26,5.39,2.35,4.23,1.93,9.43-.24,13.85-5.62,11.44-13.31,17.4-23.32,25.09,2.43,3.57,6.5,5.59,10.89,4.86,5.78-.96,10.53-4.35,14.42-8.65,2.47-2.72,5.8-4.21,8.28-1.66.92.94,1.18,2.56.75,3.96-2.61,8.55-14.74,14.3-23.16,15.46-9.34.8-15.05-1.33-20.91-9.11-8.57,4.72-20.01,10.43-30.1,9.02-6-.72-7.93-9.22-6.7-12.52l11.4-30.65c.59-1.58.27-3.55-1.03-4.21-2.09-1.06-3.56-.54-5.43.12l-11.2,3.91-7.2,12.39c-3.39,5.83-6.94,11.31-11.17,16.54-7.24,8.94-18.4,16.74-30.34,14.14-3.51-.76-6.05-2.98-6.2-6.71l-.32-7.76c-4.28,5.03-8.8,9.33-14.36,12.65-6.37,3.8-15.41,3.11-18.56-3.74-1.05-2.28-1.86-5.08-1.93-7.65l-.23-8.99c-10.9,10.53-25.87,20.76-41.26,22.45-8.27.91-15.91-.15-23.35-3.83-4.87-2.41-8.44-6.11-11.27-10.69-3.85-6.24-5.15-13.37-5.55-20.62-.15-2.76.15-8.96.55-11.72,2.82-19.22,11.41-37.53,25.41-50.97,4.15-3.99,8.74-6.62,13.81-9.03,14.58-6.95,35.98-8.22,48.31,3.62,1.15,1.11,2.25,2.62,3.07,3.99,1.13,1.88-.16,4.73-2.06,5.56-1.73.76-3.6-.1-5.04-1.16-7.31-5.38-16.18-8.46-25.27-7.55-9.27.93-17.65,4.62-24.43,10.76-13.23,11.98-21.56,28.71-23.23,46.54-.4,4.31-.22,8.49.04,12.77.97,15.6,12.3,25.52,27.77,23.61,13.62-1.68,25.32-8.63,35.33-17.7,3.92-3.55,7.6-7.1,11.13-11.05l3.54-3.94c2.41-2.68,4.44-5.62,7.04-8,9.88-9.01,21.57-11.01,34.05-6.39,3.05-2.03,9.16-3.61,10.63.62l-9.54,28.94-4.28,13.06c-.31.93-.53,2.96.07,3.8.55.78,2.87,1.24,3.79.99,5.71-1.58,10.27-5.07,14.28-9.22,1.75-1.81,3.39-3.43,4.98-5.42,5.79-7.21,10.48-15.02,14.78-23.37-2.24-5.23-3.57-14.86,2.63-17.43,2.36-.98,5.22-.26,7.21.98.28,1.7.69,3.4.61,4.87l-.23,4.26,15.7-4.12c2.02-.53,5.44.93,6.94,2.23,4.22,3.69,1.27,14.52-.5,19.09l-6.74,17.35c-1.33,3.41-2.16,6.82-2.34,10.53,9.39.8,15.3-3.14,22.69-7.31.97-.54,1.55-1.47,1.34-2.65ZM425.95,112.55c10.29-.65,26.77-28.58,30.45-37.81-7.81-3.49-16.29-4.47-23.27,1.52-14.79,12.71-16.7,36.89-7.18,36.29ZM550.66,98.47c5.67-3.21,23.51-20.75,14.95-25.77-4.08-2.39-8.16,2-10.27,5.46-2.86,4.7-4.47,9.9-5.18,15.39-.22,1.72-.37,3.33.5,4.92Z"/>
</svg>